<?xml version="1.0" encoding="UTF-8"?>
<!DOCTYPE svg PUBLIC "-//W3C//DTD SVG 1.0//EN"
	"http://www.w3.org/TR/2001/REC-SVG-20010904/DTD/svg10.dtd">
<svg xmlns="http://www.w3.org/2000/svg" version="1.0" width="1200" height="600" viewBox="0 0 6400 3200">
<path d="M0,0L0,3200L6400,3200L6400,0L0,0z" fill="red"/>
<rect width="3200" height="3200" x="1600" fill="#fff"/>
<path d="M3199.9526,290L2990.3615,698.71C2966.579,743.13 2923.9678,739.01 2881.3566,714.2L2729.6183,632.05L2842.7112,1259.82C2866.4938,1374.51 2790.1887,1374.51 2752.5317,1324.92L2487.7189,1014.97L2444.727,1172.37C2439.7693,1193.04 2417.971,1214.75 2385.2685,1209.58L2050.4097,1135.97L2138.3625,1470.29C2157.1909,1544.68 2171.8774,1575.48 2119.3545,1595.1L2000,1653.75L2576.4379,2143.29C2599.2536,2161.8 2610.7811,2195.11 2602.6585,2225.27L2552.2079,2398.37C2750.684,2374.45 2928.6267,2353.04 3127.0983,2329.15C3144.7336,2328.92 3173.9762,2344.59 3173.8558,2365.83L3147.5581,3000L3244.0581,3000L3228.8679,2367.19C3228.7474,2345.95 3255.2663,2328.92 3272.9016,2329.15C3471.3732,2353.04 3649.3161,2374.45 3847.7922,2398.37L3797.3417,2225.27C3789.2191,2195.11 3800.7465,2161.8 3823.5622,2143.29L4400,1653.75L4280.6456,1595.1C4228.1226,1575.48 4242.8092,1544.68 4261.6375,1470.29L4349.5905,1135.97L4014.7315,1209.58C3982.029,1214.75 3960.2307,1193.04 3955.2729,1172.37L3912.281,1014.97L3647.4683,1324.92C3609.8112,1374.51 3533.5061,1374.51 3557.2887,1259.82L3670.3814,632.05L3518.6434,714.2C3476.0311,739.01 3433.421,743.13 3409.6384,698.71" fill="red"/>
</svg>